<svg width="36" height="36" viewBox="0 0 36 36" fill="none" xmlns="http://www.w3.org/2000/svg">
<g clip-path="url(#clip0_3_647)">
<path d="M28.845 22.8899L25.035 22.4549C24.12 22.3499 23.22 22.6649 22.575 23.3099L19.815 26.0699C15.57 23.9099 12.09 20.4449 9.93 16.1849L12.705 13.4099C13.35 12.7649 13.665 11.8649 13.56 10.9499L13.125 7.16989C12.945 5.65489 11.67 4.51489 10.14 4.51489H7.545C5.85 4.51489 4.44 5.92489 4.545 7.61989C5.34 20.4299 15.585 30.6599 28.38 31.4549C30.075 31.5599 31.485 30.1499 31.485 28.4549V25.8599C31.5 24.3449 30.36 23.0699 28.845 22.8899Z" fill="white"/>
</g>
<defs>
<clipPath id="clip0_3_647">
<rect width="36" height="36" fill="white"/>
</clipPath>
</defs>
</svg>
