<svg width="36" height="36" viewBox="0 0 36 36" fill="none" xmlns="http://www.w3.org/2000/svg">
<g clip-path="url(#clip0_3_661)">
<path fill-rule="evenodd" clip-rule="evenodd" d="M17.5112 5C10.0398 5 4 11.1875 4 18.8422C4 24.9611 7.86993 30.1406 13.2386 31.9737C13.9098 32.1115 14.1556 31.6759 14.1556 31.3094C14.1556 30.9885 14.1335 29.8886 14.1335 28.7425C10.375 29.5676 9.59236 27.0924 9.59236 27.0924C8.98835 25.4881 8.0934 25.0758 8.0934 25.0758C6.86325 24.2279 8.183 24.2279 8.183 24.2279C9.54756 24.3195 10.2636 25.6487 10.2636 25.6487C11.4713 27.757 13.4175 27.1613 14.2004 26.7945C14.3122 25.9007 14.6703 25.282 15.0506 24.9383C12.0529 24.6174 8.89902 23.4257 8.89902 18.1087C8.89902 16.5962 9.43555 15.3587 10.2857 14.3962C10.1516 14.0526 9.68169 12.6314 10.4201 10.7293C10.4201 10.7293 11.5609 10.3626 14.1332 12.1502C15.2345 11.8472 16.3703 11.6931 17.5112 11.6918C18.652 11.6918 19.8149 11.8523 20.8888 12.1502C23.4614 10.3626 24.6022 10.7293 24.6022 10.7293C25.3406 12.6314 24.8705 14.0526 24.7364 14.3962C25.6089 15.3587 26.1233 16.5962 26.1233 18.1087C26.1233 23.4257 22.9694 24.5943 19.9493 24.9383C20.4416 25.3737 20.8664 26.1986 20.8664 27.505C20.8664 29.3612 20.8443 30.851 20.8443 31.3091C20.8443 31.6759 21.0904 32.1115 21.7614 31.974C27.13 30.1403 30.9999 24.9611 30.9999 18.8422C31.0221 11.1875 24.9601 5 17.5112 5Z" fill="white"/>
</g>
<defs>
<clipPath id="clip0_3_661">
<rect width="36" height="36" fill="white"/>
</clipPath>
</defs>
</svg>
