<svg xmlns="http://www.w3.org/2000/svg" width="128" height="128" viewBox="0 0 128 128">
  <title>CAT</title>
  <g>
    <path style="fill: #efefef;" d="M116.2,80.226a34.042,34.042,0,0,0-10.85-5.345c0-.047,0-.094,0-.141V69.82a40.874,40.874,0,0,0-3.51-16.635A43.019,43.019,0,0,0,115.62,21.65a1.75,1.75,0,0,0-1.75-1.75A43.084,43.084,0,0,0,82.907,33.075a41.228,41.228,0,0,0-37.826-.01A43.1,43.1,0,0,0,14.13,19.9a1.75,1.75,0,0,0-1.75,1.75A43.021,43.021,0,0,0,26.16,53.185,40.872,40.872,0,0,0,22.65,69.82v4.92c0,.048,0,.094,0,.141A34.032,34.032,0,0,0,11.8,80.226a1.75,1.75,0,1,0,2.054,2.833,31,31,0,0,1,9-4.6A33.079,33.079,0,0,0,24.8,86.507a33.633,33.633,0,0,0-9.939,8.779,1.75,1.75,0,1,0,2.766,2.144,30.37,30.37,0,0,1,8.592-7.705A33.38,33.38,0,0,0,56,108.1H72a33.379,33.379,0,0,0,29.773-18.358,30.219,30.219,0,0,1,8.6,7.688,1.75,1.75,0,0,0,2.766-2.144,33.6,33.6,0,0,0-9.94-8.778,33.078,33.078,0,0,0,1.937-8.046,31.016,31.016,0,0,1,9,4.6,1.75,1.75,0,1,0,2.054-2.833ZM96.527,44.339a41.854,41.854,0,0,0-5.187-5.487,17.3,17.3,0,0,1,9.551-4.222A17.285,17.285,0,0,1,96.527,44.339Zm3.7,5.564q-.748-1.362-1.6-2.676A20.766,20.766,0,0,0,104.49,32.78a1.75,1.75,0,0,0-1.75-1.75A20.793,20.793,0,0,0,88.6,36.606c-1.079-.8-1.621-1.157-2.556-1.746a39.6,39.6,0,0,1,26.032-11.419A39.525,39.525,0,0,1,100.226,49.9Zm-16.3-12.245a13.1,13.1,0,0,1-23.749-5.464A37.421,37.421,0,0,1,83.931,37.658ZM15.921,23.441A39.617,39.617,0,0,1,41.947,34.856c-.876.553-1.732,1.134-2.558,1.749A20.757,20.757,0,0,0,25.26,31.03a1.75,1.75,0,0,0-1.75,1.75,20.766,20.766,0,0,0,5.866,14.445c-.568.865-1.1,1.76-1.6,2.676A39.52,39.52,0,0,1,15.921,23.441Zm15.55,20.9a17.274,17.274,0,0,1-4.362-9.706,17.252,17.252,0,0,1,9.543,4.221A41.5,41.5,0,0,0,31.471,44.336Zm68.58,40.615a23.71,23.71,0,0,0-9.315-2.038,1.75,1.75,0,0,0,.133,3.5,20.551,20.551,0,0,1,7.776,1.765A29.876,29.876,0,0,1,72,104.6H56A29.873,29.873,0,0,1,29.345,88.154a20.218,20.218,0,0,1,7.791-1.744,1.718,1.718,0,0,0,1.81-1.683,1.75,1.75,0,0,0-1.682-1.814,23.628,23.628,0,0,0-9.315,2.037,29.636,29.636,0,0,1-1.656-7.313,21.119,21.119,0,0,1,9.381.306,1.75,1.75,0,0,0,1.1-3.321,24.351,24.351,0,0,0-10.626-.5v-4.3A37.423,37.423,0,0,1,29.85,53.5,37.893,37.893,0,0,1,56.717,32.681a16.6,16.6,0,0,0,30.1,6.962A37.87,37.87,0,0,1,98.152,53.507a37.426,37.426,0,0,1,3.7,16.313v4.3a24.313,24.313,0,0,0-10.626.5,1.75,1.75,0,0,0,1.1,3.322,21.111,21.111,0,0,1,9.383-.307A29.633,29.633,0,0,1,100.051,84.951Z"/>
    <path style="fill: #efefef;" d="M78.62,54.064c-3.35,0-6.075,3.353-6.075,7.476s2.725,7.476,6.075,7.476,6.074-3.353,6.074-7.476S81.97,54.064,78.62,54.064Zm0,11.452c-1.372,0-2.575-1.858-2.575-3.976s1.2-3.976,2.575-3.976,2.574,1.858,2.574,3.976S79.991,65.516,78.62,65.516Z"/>
    <path style="fill: #efefef;" d="M55.455,61.54c0-4.123-2.726-7.476-6.075-7.476s-6.074,3.353-6.074,7.476,2.724,7.476,6.074,7.476S55.455,65.663,55.455,61.54Zm-8.649,0c0-2.118,1.2-3.976,2.574-3.976s2.575,1.858,2.575,3.976-1.2,3.976-2.575,3.976S46.806,63.658,46.806,61.54Z"/>
    <path style="fill: #efefef;" d="M78.62,80.379a1.75,1.75,0,0,0-1.75,1.75,5.56,5.56,0,1,1-11.12,0V79.8a18.219,18.219,0,0,0,5.537-4.47,3.286,3.286,0,0,0-2.17-5.359,46.711,46.711,0,0,0-10.237,0,3.286,3.286,0,0,0-2.167,5.359A18.253,18.253,0,0,0,62.25,79.8v2.33a5.56,5.56,0,1,1-11.12,0,1.75,1.75,0,0,0-3.5,0,9,9,0,0,0,10.676,8.9C59.027,94.668,61.255,97.2,64,97.2s4.973-2.535,5.693-6.172a8.953,8.953,0,0,0,1.617.159,9.071,9.071,0,0,0,9.06-9.061A1.75,1.75,0,0,0,78.62,80.379ZM59.672,73.406a43.233,43.233,0,0,1,8.656,0A14.994,14.994,0,0,1,64,76.774,14.986,14.986,0,0,1,59.672,73.406ZM64,93.7c-.843,0-2.051-1.53-2.364-4a9,9,0,0,0,2.35-2.256A8.669,8.669,0,0,0,66.363,89.7C66.05,92.173,64.843,93.7,64,93.7Z"/>
  </g>
</svg>
